<svg width="852" height="529" viewBox="0 0 852 529" fill="none" xmlns="http://www.w3.org/2000/svg">
<path d="M448 10C586.071 10 698 121.929 698 260C698 398.071 586.071 510 448 510C309.929 510 198 398.071 198 260C198 121.929 309.929 10 448 10Z" fill="#F5C01A" stroke="white" stroke-width="20"/>
<path d="M193.212 313.231C175.439 334.288 164.382 350.628 158.773 362.826C152.902 375.592 154.317 380.789 155.492 382.539C156.817 384.511 161.322 387.547 174.119 387.702C186.23 387.848 202.838 385.346 223.621 380.214C306.834 359.665 446.639 299.7 600.195 226.472L611.976 242.138L604.499 235.498L611.973 242.143C611.971 242.144 611.969 242.147 611.966 242.15C611.961 242.156 611.954 242.163 611.947 242.172C611.93 242.19 611.908 242.215 611.88 242.247C611.823 242.31 611.742 242.4 611.637 242.516C611.428 242.748 611.123 243.086 610.723 243.524C609.922 244.399 608.741 245.675 607.193 247.315C604.096 250.594 599.526 255.327 593.569 261.211C581.658 272.977 564.192 289.357 541.871 307.924C497.263 345.029 433.09 391.016 354.972 426.302C277.754 461.182 205.897 489.26 150.093 503.314C122.267 510.322 97.7482 514.026 78.2622 513.027C59.3927 512.06 42.5145 506.47 33.8547 491.985L33.4482 491.288C26.5974 479.239 23.1107 465.958 24.6096 451.38C26.0951 436.934 32.3899 422.043 43.6756 406.482C66.0518 375.63 109.353 340.384 180.468 298.181L193.212 313.231Z" fill="#332264" stroke="white" stroke-width="20"/>
<path d="M821.957 105.211C822.408 112.428 820.441 121.349 816.865 130.748C813.207 140.363 807.56 151.271 799.846 162.695C784.406 185.558 760.418 210.879 726.629 232.353C723.693 234.219 720.832 235.982 718.044 237.648C716.436 247.048 712.564 256.556 706.56 265.206C698.054 277.46 686.444 286.315 674.157 290.441C661.869 294.567 648.222 294.098 637.091 286.373L628.736 280.575L634.675 272.319C638.485 267.023 641.57 262.098 644.014 257.605C629.685 253.068 621.114 241.776 614.486 231.347C607.78 220.795 601.116 208.068 603.32 192.937C598.402 193.265 592.884 193.956 586.783 195.098L576.786 196.969L575.084 186.943C572.816 173.585 578.187 161.031 587.14 151.658C596.092 142.285 609.039 135.533 623.745 133.035L625.123 132.814C635.04 131.321 644.801 131.915 653.594 134.343C656.028 132.711 658.56 131.06 661.191 129.388C694.98 107.913 728.089 96.9462 755.345 92.6747C768.964 90.5404 781.237 90.0599 791.496 90.8302C801.524 91.5833 810.436 93.5898 816.779 97.0628L821.613 99.7099L821.957 105.211Z" fill="#332264" stroke="white" stroke-width="20"/>
<circle cx="725.892" cy="160.545" r="15" transform="rotate(57.5625 725.892 160.545)" fill="white"/>
<circle cx="95" cy="133" r="10" fill="white"/>
<circle cx="150" cy="128" r="15" fill="white"/>
<circle cx="118" cy="185" r="20" fill="white"/>
<line x1="182.309" y1="285.66" x2="201.309" y2="317.66" stroke="white" stroke-width="17"/>
</svg>
